Coordinates
version=1
nRows=10
nColumns=63
inDegrees=yes

Units are S.I. units (second, meters, Newtons, ...)
If the header above contains a line with 'inDegrees', this indicates whether rotational values are in degrees (yes) or radians (no).

endheader
time	pelvis_tilt	pelvis_list	pelvis_rotation	pelvis_tx	pelvis_ty	pelvis_tz	hip_flexion_r	hip_adduction_r	hip_rotation_r	knee_angle_r	knee_angle_r_beta	ankle_angle_r	subtalar_angle_r	mtp_angle_r	hip_flexion_l	hip_adduction_l	hip_rotation_l	knee_angle_l	knee_angle_l_beta	ankle_angle_l	subtalar_angle_l	mtp_angle_l	L5_S1_Flex_Ext	L5_S1_Lat_Bending	L5_S1_axial_rotation	L4_L5_Flex_Ext	L4_L5_Lat_Bending	L4_L5_axial_rotation	L3_L4_Flex_Ext	L3_L4_Lat_Bending	L3_L4_axial_rotation	L2_L3_Flex_Ext	L2_L3_Lat_Bending	L2_L3_axial_rotation	L1_L2_Flex_Ext	L1_L2_Lat_Bending	L1_L2_axial_rotation	L1_T12_Flex_Ext	L1_T12_Lat_Bending	L1_T12_axial_rotation	Abs_r3	Abs_r2	Abs_r1	Abs_t1	Abs_t2	neck_flexion	neck_bending	neck_rotation	arm_flex_r	arm_add_r	arm_rot_r	elbow_flex_r	pro_sup_r	wrist_flex_r	wrist_dev_r	arm_flex_l	arm_add_l	arm_rot_l	elbow_flex_l	pro_sup_l	wrist_flex_l	wrist_dev_l
      2.03333333	     -0.73068565	     -3.94012128	     93.83518500	      0.18992485	      0.97409926	      0.50481382	     -4.95991329	      0.83788330	     -8.64650465	      3.83329072	      0.06690354	     35.00201895	     13.31394391	      0.00000000	     -1.44648283	     -0.22839617	    -13.12295404	      9.48477094	      0.16554048	     38.20064615	     10.89704335	      0.00000000	     -0.19779760	     -0.09552587	     -0.19319376	     -0.36732993	     -0.12704941	     -0.20526837	     -0.32496168	     -0.23226161	     -0.20526837	     -0.22606288	     -0.23226161	     -0.16904454	     -0.18367485	     -0.19479636	     -0.15696993	     -0.11302155	     -0.14796958	     -0.14489532	     -1.41284850	     -1.08060780	     -1.07448573	      0.00000000	      0.00000000	      8.77391916	      5.35643798	     -3.38049597	     -5.33114643	    -14.31303884	      1.38986589	     49.24691193	     84.98802340	     -7.83485983	      7.93471572	     -1.25355185	    -18.66129309	     17.99796694	     39.79502968	     84.78981286	     -7.43407462	      8.62484246
      2.05000000	     -0.75895117	     -3.58957524	     92.98670729	      0.19165507	      0.97400626	      0.50228323	     -5.69034021	      0.99149402	     -3.82674116	      3.33145304	      0.05814482	     33.99502181	      8.40692894	      0.00000000	     -2.11771705	     -0.52897339	    -17.28995967	      9.69063578	      0.16913350	     38.93517123	     15.10173172	      0.00000000	     -0.19289003	     -0.09062671	     -0.04983507	     -0.35821608	     -0.12053352	     -0.05294976	     -0.31689903	     -0.22034978	     -0.05294976	     -0.22045402	     -0.22034978	     -0.04360569	     -0.17911768	     -0.18480599	     -0.04049099	     -0.11021736	     -0.14038077	     -0.03737630	     -1.37779421	     -1.02518747	     -0.27716771	      0.00000000	      0.00000000	      8.85528318	      6.23085781	     -3.27916302	     -5.85233946	    -14.05377663	      0.46172968	     50.17027434	     86.09547771	     -7.21073472	      8.37315408	     -1.23645987	    -18.39358564	     17.57979328	     40.44035469	     83.92719927	     -6.99230171	     10.44586590
      2.06666667	     -0.73234211	     -3.24769952	     92.39450057	      0.19274691	      0.97410913	      0.49992526	     -6.41943034	      1.13468294	      0.01329708	      2.76462031	      0.04825173	     33.13361929	      4.58752448	      0.00000000	     -2.86487656	     -0.52781569	    -17.82636758	      9.42792234	      0.16454829	     38.89277135	     15.00752941	      0.00000000	     -0.19145738	     -0.07773431	      0.05094402	     -0.35555549	     -0.10338663	      0.05412802	     -0.31454532	     -0.18900319	      0.05412802	     -0.21881664	     -0.18900319	      0.04457602	     -0.17778732	     -0.15851580	      0.04139202	     -0.10939874	     -0.12041044	      0.03820802	     -1.36756089	     -0.87934603	      0.28333536	      0.00000000	      0.00000000	      8.91454137	      7.39407130	     -2.98940656	     -6.25626498	    -14.06972769	      0.37390136	     51.04290236	     86.12193581	     -7.22329820	      8.54226769	     -0.95540617	    -18.18300268	     18.19020959	     40.82891539	     81.35654431	     -7.06381857	     11.45215181
      2.08333333	     -0.66949343	     -2.92572851	     91.76741618	      0.19384259	      0.97439104	      0.49787364	     -6.93100922	      1.18622375	      1.08640452	      2.50613823	      0.04374036	     33.04582349	      4.55075722	      0.00000000	     -3.58547189	     -0.54514219	    -18.39826409	      9.12525419	      0.15926573	     38.80547047	     14.99556509	      0.00000000	     -0.19539389	     -0.05963923	      0.14658196	     -0.36286598	     -0.07932018	      0.15574334	     -0.32101261	     -0.14500683	      0.15574334	     -0.22331567	     -0.14500683	      0.12825922	     -0.18144276	     -0.12161632	      0.11909785	     -0.11164807	     -0.09238117	      0.10993647	     -1.39567898	     -0.67465092	      0.81524491	      0.00000000	      0.00000000	      8.92798505	      8.46502851	     -2.57636794	     -6.56082211	    -14.04339148	      0.27407413	     51.93793549	     85.96065150	     -6.88260362	      8.60656202	     -0.62715505	    -17.82735141	     18.25635731	     41.12509530	     80.24984736	     -6.27787153	     11.92438577
      2.10000000	     -0.62972645	     -2.74015046	     91.62040959	      0.19421563	      0.97460253	      0.49595339	     -7.26392417	      1.24006121	      1.49305491	      2.38791687	      0.04167701	     33.17318391	      4.68159180	      0.00000000	     -3.97517820	     -0.59179685	    -18.52162597	      9.08540129	      0.15857017	     38.78285871	     15.00898762	      0.00000000	     -0.17918585	     -0.04808972	      0.13976248	     -0.33276604	     -0.06395933	      0.14849764	     -0.29438443	     -0.11692535	      0.14849764	     -0.20479151	     -0.11692535	      0.12229217	     -0.16639198	     -0.09806456	      0.11355702	     -0.10238680	     -0.07449098	      0.10482186	     -1.27990661	     -0.54400057	      0.77731700	      0.00000000	      0.00000000	      8.74811596	      9.11750920	     -2.64981722	     -6.84487551	    -14.03193625	      0.50381616	     52.91089390	     85.89748840	     -6.56599056	      8.39972943	     -0.33744406	    -17.54897854	     18.45865026	     41.52543902	     80.04756568	     -5.98006379	     11.70904132
      2.11666667	     -0.50027491	     -2.45759025	     90.84662576	      0.19537585	      0.97513822	      0.49477778	     -7.71405984	      1.29703156	      2.61856703	      2.00088706	      0.03492207	     33.03198487	      4.61969668	      0.00000000	     -4.66858827	     -0.60126636	    -19.22813464	      8.57531980	      0.14966756	     38.61832002	     15.11323118	      0.00000000	     -0.19571151	     -0.02504816	      0.27108824	     -0.36345584	     -0.03331405	      0.28803125	     -0.32153444	     -0.06090210	      0.28803125	     -0.22367868	     -0.06090210	      0.23720221	     -0.18173771	     -0.05107821	      0.22025919	     -0.11182956	     -0.03879960	      0.20331618	     -1.39794774	     -0.28334981	      1.50771145	      0.00000000	      0.00000000	      8.85026179	     10.63608474	     -2.00154489	     -7.03317760	    -14.04542840	      0.50482268	     53.90913562	     85.14180717	     -5.39127317	      8.16833119	      0.60063689	    -17.39303659	     19.68196832	     41.27585927	     79.30191308	     -4.66679471	     10.49643045
      2.13333333	     -0.52698578	     -2.29049942	     90.41331390	      0.19609169	      0.97551915	      0.49386569	     -8.06566117	      1.29335918	      7.31351914	      1.58795428	      0.02771503	     32.08013262	     -0.90496286	      0.00000000	     -4.99573712	     -0.58522416	    -20.24023004	      8.53824298	      0.14902045	     38.65208756	     15.92159852	      0.00000000	     -0.19351497	     -0.01821132	      0.33737459	     -0.35937665	     -0.02422105	      0.35846050	     -0.31792575	     -0.04427900	      0.35846050	     -0.22116826	     -0.04427900	      0.29520276	     -0.17969800	     -0.03713652	      0.27411685	     -0.11057445	     -0.02820933	      0.25303094	     -1.38225809	     -0.20601008	      1.87637625	      0.00000000	      0.00000000	      8.58443111	     11.02930035	     -1.90307509	     -7.28345919	    -13.95191507	      0.45282682	     54.98768577	     84.33457474	     -3.99736195	      7.71908653	      1.75227109	    -17.74806639	     22.89831503	     40.93757355	     76.32639349	     -4.85563248	      8.23967688
      2.15000000	     -0.46851231	     -2.15792484	     90.21390915	      0.19645230	      0.97593331	      0.49369438	     -8.18543832	      1.32605288	      7.59163719	      1.49348462	      0.02606622	     32.21374851	     -0.90718818	      0.00000000	     -5.24439253	     -0.61640168	    -20.42643037	      8.41897537	      0.14693884	     38.47722889	     15.82403399	      0.00000000	     -0.19679327	     -0.00413328	      0.31360477	     -0.36546478	     -0.00549726	      0.33320507	     -0.32331166	     -0.01004966	      0.33320507	     -0.22491503	     -0.01004966	      0.27440418	     -0.18274223	     -0.00842859	      0.25480388	     -0.11244767	     -0.00640245	      0.23520358	     -1.40567465	     -0.04675650	      1.74417567	      0.00000000	      0.00000000	      8.56965986	     11.59269995	     -1.69463022	     -7.16725353	    -14.07124891	      1.14888786	     55.91139396	     83.72216507	     -2.76671090	      7.08560587	      2.46296481	    -17.68943663	     23.85069204	     40.70910478	     77.32573982	     -4.16330649	      6.69960470
      2.16666667	     -0.45750853	     -2.11513406	     90.17173302	      0.19648207	      0.97606496	      0.49365026	     -8.18856120	      1.32884806	      7.63586921	      1.43718996	      0.02508370	     32.42592564	     -0.89837725	      0.00000000	     -5.35081093	     -0.62059376	    -20.57941916	      8.38860045	      0.14640870	     38.29052886	     15.73156820	      0.00000000	     -0.18352403	      0.00644905	      0.25652816	     -0.34082247	      0.00857724	      0.27256117	     -0.30151163	      0.01568023	      0.27256117	     -0.20974961	      0.01568023	      0.22446214	     -0.17042041	      0.01315091	      0.20842913	     -0.10486563	      0.00998958	      0.19239612	     -1.31089378	      0.07295298	      1.42673266	      0.00000000	      0.00000000	      8.60119785	     11.84930023	     -1.72067572	     -7.12346538	    -14.29308119	      2.07639208	     57.15554717	     83.71771284	     -2.10414918	      6.63216113	      2.86493394	    -17.66115354	     24.53444297	     40.80401414	     77.94998416	     -3.86466182	      5.93203234
      2.18333333	     -0.27237959	     -2.04357443	     90.25189220	      0.19629656	      0.97663502	      0.49465296	     -8.14216446	      1.52505565	      7.32273342	      1.42350208	      0.02484480	     32.45491610	     -0.59025040	      0.00000000	     -5.42057769	     -0.81601846	    -20.57615942	      8.35871235	      0.14588705	     37.96108391	     15.48476162	      0.00000000	     -0.17923712	      0.04071694	      0.18247506	     -0.33286125	      0.05415354	      0.19387975	     -0.29446866	      0.09899918	      0.19387975	     -0.20485010	      0.09899918	      0.15966567	     -0.16643959	      0.08302999	      0.14826098	     -0.10241609	      0.06307055	      0.13685629	     -1.28027281	      0.46059822	      1.01487152	      0.00000000	      0.00000000	      8.65449580	     12.02500500	     -1.55832728	     -6.64105241	    -14.78130644	      3.78587103	     57.94149322	     83.79459140	     -2.24404521	      4.89092813	      3.97281550	    -17.59648981	     26.66791917	     39.58602199	     80.87747221	     -3.63692230	      3.09720975
